<?xml version="1.0" standalone="no"?>
<!DOCTYPE svg PUBLIC "-//W3C//DTD SVG 20010904//EN"
 "http://www.w3.org/TR/2001/REC-SVG-20010904/DTD/svg10.dtd">
<svg version="1.0" xmlns="http://www.w3.org/2000/svg"
 width="512.000000pt" height="512.000000pt" viewBox="0 0 512.000000 512.000000"
 preserveAspectRatio="xMidYMid meet">
<metadata>
Created by potrace 1.11, written by Peter Selinger 2001-2013
</metadata>
<g transform="translate(0.000000,512.000000) scale(0.100000,-0.100000)"
fill="#000000" stroke="none">
<path d="M1554 3837 c-3 -10 -20 -12 -55 -9 -33 2 -49 0 -45 -6 4 -6 1 -14 -5
-18 -7 -4 -9 -3 -5 4 3 6 2 13 -4 17 -5 3 -10 0 -10 -8 0 -11 -7 -13 -22 -9
-14 3 -19 2 -14 -6 5 -8 0 -12 -13 -12 -10 0 -22 -6 -24 -12 -4 -10 -6 -9 -6
1 -1 15 -41 -25 -41 -41 0 -4 -5 -8 -12 -8 -9 0 -9 3 0 12 20 20 14 29 -7 11
-11 -9 -17 -21 -14 -26 3 -5 -5 -3 -18 3 -20 10 -22 10 -11 -1 16 -18 15 -34
-2 -20 -10 9 -17 7 -27 -6 -9 -11 -10 -14 -1 -9 6 4 12 3 12 -3 0 -5 -9 -13
-21 -16 -16 -5 -18 -10 -8 -21 11 -14 10 -15 -13 -18 -7 -1 -13 -13 -12 -28 1
-19 -3 -25 -13 -21 -9 3 -14 0 -13 -8 4 -27 0 -39 -12 -37 -8 2 -12 -12 -12
-42 0 -25 4 -43 9 -41 6 1 8 8 6 15 -2 6 -4 23 -6 39 -2 21 0 25 10 17 6 -5
16 -6 21 -2 5 4 1 -3 -9 -14 -17 -20 -17 -23 -2 -38 9 -9 12 -16 8 -16 -5 0
-9 -13 -9 -29 0 -20 4 -27 13 -24 9 4 11 0 6 -13 -5 -13 -3 -16 10 -11 11 4
14 2 11 -8 -3 -8 1 -22 10 -30 9 -9 16 -13 16 -8 0 4 8 -4 17 -17 10 -14 15
-25 13 -26 -3 0 1 -8 8 -17 8 -9 21 -13 30 -10 9 3 14 3 10 -2 -9 -10 16 -35
36 -35 8 0 18 -10 21 -21 5 -15 10 -18 15 -9 5 8 9 8 13 -4 4 -9 14 -16 22
-16 9 0 14 -4 10 -9 -3 -5 -1 -12 5 -16 5 -3 10 -2 10 4 0 5 9 9 19 8 11 0 19
-6 18 -12 -1 -5 7 -9 18 -8 19 1 19 1 2 -12 -16 -11 -16 -13 -2 -19 10 -3 14
-2 10 5 -4 6 1 9 11 7 25 -4 43 -21 36 -32 -3 -5 0 -6 7 -2 6 4 22 1 35 -8 13
-8 27 -12 30 -9 11 11 36 12 36 2 0 -6 6 -7 13 -3 8 5 8 2 -2 -9 -15 -19 -1
-23 17 -5 9 9 12 9 13 -3 1 -7 1 -18 0 -22 -1 -5 3 -6 9 -2 6 3 8 12 4 18 -3
7 5 1 17 -13 12 -14 20 -18 17 -10 -5 14 0 14 37 6 24 -6 41 -14 39 -18 -3 -4
2 -8 11 -8 10 0 14 5 10 13 -4 6 2 2 13 -11 14 -15 22 -18 25 -10 4 10 6 10 6
1 1 -7 6 -13 12 -13 5 0 7 6 3 13 -5 8 -3 8 9 -2 9 -7 25 -11 35 -9 15 4 18 0
16 -19 -2 -20 0 -22 13 -12 11 10 16 10 22 0 7 -10 13 -10 31 1 18 10 24 10
27 1 3 -7 9 -13 14 -13 6 0 7 6 3 13 -4 6 3 3 16 -8 13 -11 20 -15 17 -8 -4 6
-3 14 3 18 5 3 10 1 10 -4 0 -15 30 -14 31 2 0 6 4 3 9 -8 5 -11 9 -15 9 -8 1
7 8 10 16 7 9 -4 15 0 15 7 1 8 7 3 15 -11 12 -22 19 -21 16 2 0 3 13 4 29 1
18 -2 30 0 30 7 0 7 7 5 16 -4 10 -11 21 -13 32 -7 9 4 23 6 30 4 6 -3 12 0
12 7 0 6 -4 9 -9 5 -5 -3 -12 -1 -16 4 -3 6 6 8 21 5 16 -3 31 0 35 8 7 10 9
10 9 1 0 -7 4 -13 10 -13 5 0 7 6 4 14 -3 8 0 17 7 22 7 4 10 3 5 -4 -3 -6 -2
-13 4 -17 10 -6 15 8 10 30 -1 6 4 4 11 -2 18 -17 34 -16 20 1 -9 10 -8 16 4
26 8 7 12 17 8 24 -4 6 0 5 9 -2 13 -10 18 -10 24 -1 4 8 3 9 -4 5 -7 -4 -12
-1 -12 9 0 10 5 13 13 9 8 -5 8 -2 -2 9 -15 19 -1 23 17 5 7 -7 12 -8 12 -4 0
5 -10 18 -22 29 -19 16 -20 19 -4 13 14 -5 17 -3 12 10 -3 8 -6 18 -6 20 0 3
-4 3 -9 0 -5 -4 -8 2 -6 11 1 10 -3 24 -9 32 -8 11 -8 13 1 8 8 -5 11 0 10 13
-1 11 -8 20 -15 20 -11 0 -12 3 -4 13 8 10 5 20 -11 38 -12 14 -29 28 -37 32
-11 4 -10 6 5 7 19 1 18 2 -2 10 -13 5 -23 18 -23 29 0 11 -6 22 -12 24 -10 4
-9 8 2 16 8 6 10 11 4 11 -6 0 -14 -3 -18 -7 -10 -11 -37 -12 -30 -2 3 5 11 6
17 2 7 -4 6 0 -2 10 -7 9 -10 17 -7 17 4 0 3 8 -2 17 -13 22 -42 26 -35 5 4
-14 3 -15 -5 -2 -8 10 -8 18 0 27 8 10 7 12 -5 8 -8 -4 -18 -1 -22 4 -3 6 -12
8 -18 5 -7 -4 -9 -4 -5 1 4 4 0 14 -10 21 -15 12 -15 15 -2 25 12 9 11 10 -6
6 -12 -2 -28 0 -35 5 -11 8 -10 9 3 4 10 -3 19 -2 22 2 2 4 -7 9 -22 10 -14 1
-31 7 -37 14 -7 8 -7 9 2 4 6 -3 15 -2 18 4 4 6 1 9 -7 8 -7 -2 -12 4 -10 12
3 11 -2 10 -17 -4 -21 -19 -21 -19 -17 13 3 30 3 31 -15 15 -17 -16 -18 -15
-14 5 2 11 1 20 -3 20 -19 -3 -33 3 -64 28 -18 15 -27 20 -19 10 21 -27 6 -20
-29 13 -18 17 -35 28 -39 25 -3 -3 1 -10 9 -15 8 -6 10 -10 4 -10 -6 0 -19 10
-28 23 -10 14 -14 16 -10 4 5 -13 2 -16 -10 -11 -10 4 -15 13 -11 21 3 11 1
13 -10 9 -8 -3 -15 -2 -15 3 0 5 -10 11 -22 14 -23 6 -23 6 -3 -10 18 -14 18
-15 2 -9 -10 3 -21 6 -23 6 -2 0 -4 7 -4 16 0 8 -5 12 -10 9 -6 -4 -7 -12 -3
-18 5 -8 2 -8 -9 0 -8 7 -19 9 -23 5 -5 -4 -5 1 -2 10 3 10 3 17 -1 17 -4 -1
-9 0 -12 1 -25 9 -41 7 -36 -6 4 -11 2 -12 -13 -5 -10 6 -22 7 -26 3 -5 -4 -5
-2 -1 5 5 9 -3 12 -26 12 -40 0 -58 4 -77 15 -10 7 -12 6 -6 -4 6 -10 4 -12
-7 -7 -9 3 -20 1 -26 -5 -12 -12 -35 -1 -27 13 4 5 4 9 0 9 -3 0 -8 -6 -11
-13z m254 -42 c-3 -3 -9 2 -12 12 -6 14 -5 15 5 6 7 -7 10 -15 7 -18z m566
-330 c3 -8 1 -15 -4 -15 -6 0 -10 7 -10 15 0 8 2 15 4 15 2 0 6 -7 10 -15z
m117 -182 c13 -16 12 -17 -3 -4 -10 7 -18 15 -18 17 0 8 8 3 21 -13z m-885
-194 c3 -6 -5 -3 -20 6 -14 10 -26 19 -26 22 0 7 39 -17 46 -28z m365 -112
c-10 -9 -11 -8 -5 6 3 10 9 15 12 12 3 -3 0 -11 -7 -18z m39 -3 c0 -8 -4 -12
-10 -9 -5 3 -10 10 -10 16 0 5 5 9 10 9 6 0 10 -7 10 -16z"/>
<path d="M2863 3617 c-3 -5 -18 -7 -33 -5 -21 3 -27 1 -22 -11 4 -10 1 -12 -8
-6 -10 6 -12 4 -6 -10 6 -16 4 -16 -11 -4 -14 12 -16 12 -8 0 6 -11 4 -13 -10
-7 -16 6 -16 4 -4 -11 12 -15 12 -16 -4 -10 -15 6 -16 4 -6 -16 12 -21 11 -21
-6 -7 -10 8 -16 9 -11 3 9 -17 -12 -55 -26 -47 -7 4 -8 3 -4 -5 4 -6 12 -9 17
-6 5 4 10 1 10 -4 3 -21 4 -26 13 -39 5 -8 4 -18 -2 -24 -7 -7 -10 -5 -9 7 1
10 -5 20 -13 22 -13 4 -13 3 0 -6 8 -5 11 -13 7 -17 -4 -4 3 -18 15 -31 12
-13 18 -23 14 -23 -3 0 1 -14 9 -30 9 -17 13 -36 9 -42 -4 -6 -3 -8 4 -4 6 3
13 2 17 -4 3 -5 1 -10 -4 -10 -6 0 -11 -4 -11 -10 0 -5 7 -7 15 -4 9 4 15 0
15 -10 0 -9 7 -16 16 -16 13 0 14 -3 5 -14 -10 -12 -9 -13 7 -9 11 2 23 0 26
-6 5 -7 0 -9 -11 -5 -16 5 -16 4 -2 -8 9 -7 14 -20 11 -28 -5 -13 -3 -13 11
-1 10 7 18 11 18 7 1 -3 3 -9 4 -13 2 -5 6 -18 10 -30 4 -13 12 -20 19 -16 7
4 6 1 -1 -9 -15 -18 -5 -32 12 -18 8 7 12 4 12 -8 0 -9 -5 -21 -11 -25 -6 -5
-1 -5 12 -2 24 7 29 -3 10 -25 -7 -8 -2 -6 11 5 l24 20 -12 -22 c-10 -20 -9
-22 5 -16 12 4 15 3 10 -5 -4 -7 -2 -12 4 -12 8 0 10 -9 5 -27 -6 -27 -6 -27
9 -8 9 11 15 15 14 10 -2 -6 7 -21 18 -33 12 -13 20 -31 17 -41 -2 -9 5 -25
16 -35 11 -10 17 -25 14 -33 -4 -10 0 -13 12 -11 11 2 19 -4 20 -15 2 -9 0
-15 -4 -12 -4 2 -8 -2 -8 -10 0 -8 3 -13 5 -10 6 5 30 -26 28 -36 0 -3 6 -14
14 -25 14 -18 14 -18 -2 -5 -22 17 -24 -1 -3 -23 12 -11 13 -21 5 -42 -8 -21
-8 -29 2 -36 9 -5 10 -8 1 -8 -6 0 -10 -9 -8 -19 3 -14 -1 -18 -12 -14 -8 3
-11 9 -6 12 4 3 9 13 11 21 1 10 -2 9 -13 -4 -17 -22 -20 -51 -5 -41 6 3 10 1
10 -4 0 -6 -4 -12 -10 -12 -5 -1 -14 -2 -19 -3 -5 0 -13 -5 -18 -10 -5 -5 -3
-6 5 -2 6 4 12 2 12 -3 0 -6 -7 -11 -16 -11 -11 0 -15 -6 -11 -20 5 -18 -10
-27 -28 -17 -2 1 -10 -7 -18 -17 -10 -13 -16 -15 -21 -8 -9 15 -26 16 -26 1 0
-5 4 -8 9 -5 5 3 11 0 14 -7 3 -9 -6 -12 -33 -11 -31 1 -37 -2 -33 -15 5 -13
3 -14 -8 -3 -7 6 -18 12 -23 12 -6 0 -4 -5 4 -10 13 -8 12 -10 -2 -10 -10 0
-18 -6 -18 -12 0 -10 -2 -10 -9 0 -6 11 -11 10 -25 -3 -12 -12 -16 -13 -16 -3
0 10 -3 9 -10 -2 -5 -8 -10 -10 -10 -5 0 6 -5 3 -10 -5 -5 -8 -14 -16 -20 -16
-5 -1 -11 -2 -12 -4 -8 -6 -46 -5 -42 1 6 10 -23 5 -33 -6 -4 -4 -2 -5 5 -1 6
4 12 2 12 -4 0 -6 -12 -8 -31 -5 -17 3 -37 1 -44 -5 -10 -8 -15 -8 -21 1 -5 8
-3 9 6 4 9 -5 11 -4 6 4 -6 8 -12 9 -20 2 -7 -6 -15 -8 -19 -5 -3 3 -3 -5 0
-18 3 -17 2 -20 -5 -9 -11 15 -46 26 -37 11 6 -10 -23 -22 -35 -15 -5 3 -11 1
-15 -5 -4 -6 -12 -7 -18 -3 -7 4 -28 8 -49 9 -29 1 -36 -3 -33 -16 2 -9 -3
-17 -10 -17 -8 0 -12 4 -9 9 3 4 0 9 -5 9 -6 1 -17 2 -23 3 -7 1 -21 -5 -32
-13 -10 -9 -20 -15 -22 -13 -11 7 -24 1 -18 -9 4 -7 -1 -7 -16 1 -21 11 -22
10 -16 -6 6 -16 5 -16 -15 2 -12 10 -20 14 -16 9 3 -6 2 -17 -4 -25 -7 -13 -9
-13 -9 1 0 9 -7 16 -15 16 -10 0 -12 -4 -5 -12 8 -9 6 -14 -5 -19 -9 -3 -14
-2 -11 3 3 5 -1 11 -8 14 -10 4 -13 0 -11 -14 2 -11 0 -17 -4 -15 -17 11 -61
14 -67 5 -3 -5 -9 -7 -14 -4 -4 3 -22 -8 -39 -24 -18 -17 -32 -24 -35 -17 -3
7 -8 6 -14 -3 -12 -17 -66 -25 -56 -9 4 7 2 8 -5 4 -9 -6 -9 -11 1 -24 8 -10
9 -13 1 -9 -6 4 -15 3 -18 -3 -5 -8 -11 -8 -19 -1 -14 11 -26 5 -26 -13 0 -6
5 -4 10 4 6 9 10 10 10 3 0 -7 -10 -17 -21 -24 -15 -8 -19 -8 -15 0 4 6 4 11
-1 11 -11 0 -40 -20 -30 -20 4 0 -5 -11 -20 -24 -21 -18 -31 -21 -41 -14 -9 8
-11 7 -6 -6 5 -12 2 -15 -12 -9 -13 5 -15 3 -9 -7 6 -10 3 -12 -13 -8 -12 4
-20 3 -17 -2 3 -4 -2 -13 -10 -20 -8 -7 -12 -17 -8 -24 4 -6 -2 -4 -12 4 -17
14 -18 14 -5 -10 12 -23 12 -24 -4 -11 -15 12 -16 12 -9 -5 6 -16 5 -17 -9 -6
-13 10 -18 10 -24 1 -4 -7 -3 -9 4 -5 6 4 10 -1 9 -13 -1 -15 -4 -17 -14 -9
-11 8 -12 7 -7 -7 5 -13 4 -16 -4 -11 -11 7 -17 -6 -13 -28 1 -5 -5 -3 -14 4
-13 11 -14 10 -9 -5 6 -14 4 -16 -7 -10 -12 8 -12 6 0 -9 8 -9 10 -16 5 -15
-21 4 -31 -2 -42 -26 -10 -21 -9 -23 6 -19 15 5 15 4 -1 -9 -10 -8 -19 -19
-19 -24 -1 -11 -24 -43 -29 -40 -2 1 2 -4 10 -10 13 -11 12 -13 -3 -13 -15 0
-16 -3 -6 -15 11 -13 10 -14 -4 -9 -9 3 -16 1 -16 -5 0 -6 5 -11 12 -11 6 0 8
-3 5 -7 -4 -3 -2 -11 3 -18 7 -8 5 -12 -5 -12 -8 0 -12 4 -9 8 2 4 0 10 -5 14
-11 6 -7 -27 5 -47 4 -6 3 -8 -4 -4 -6 3 -13 2 -17 -4 -3 -5 -2 -10 2 -10 5 0
10 -14 11 -31 2 -18 -2 -28 -8 -24 -6 3 -7 0 -4 -9 3 -9 10 -16 16 -16 5 0 7
4 3 9 -3 5 -1 12 4 16 6 3 8 -2 7 -12 -6 -28 12 -65 26 -57 7 4 4 -3 -6 -15
-19 -21 -19 -21 -1 -15 12 5 16 4 11 -4 -5 -8 -1 -10 10 -5 11 4 15 3 11 -4
-4 -6 -1 -14 5 -16 10 -4 10 -7 0 -15 -9 -6 -5 -12 15 -20 24 -11 26 -10 11 1
-10 8 -15 16 -12 19 8 8 54 -37 54 -53 0 -11 2 -11 10 1 9 13 10 13 11 0 1 -8
1 -18 0 -22 0 -7 19 -5 34 3 14 8 56 -16 47 -27 -4 -4 1 -2 11 5 10 8 17 9 17
3 0 -6 -7 -15 -15 -20 -11 -6 -5 -8 20 -9 19 -1 32 3 29 8 -3 5 -9 7 -13 5 -3
-3 -7 4 -7 15 0 17 3 16 22 -6 21 -25 23 -25 176 -25 109 0 158 4 167 12 11
10 13 10 7 1 -5 -9 0 -13 14 -13 13 0 19 4 14 12 -5 7 -3 8 7 2 18 -11 89 -13
89 -2 0 5 -13 6 -30 3 -16 -3 -30 -1 -30 4 0 6 9 8 20 6 11 -2 20 1 20 6 0 6
8 6 20 -1 16 -9 20 -8 20 5 0 12 6 14 26 9 18 -5 25 -3 20 4 -3 6 1 9 10 8 8
-1 20 -9 25 -17 7 -11 9 -11 9 -1 0 7 5 10 12 6 7 -4 8 -3 4 5 -4 6 -12 8 -18
5 -7 -5 -8 -2 -4 5 5 7 10 10 14 7 3 -3 11 2 19 12 8 9 12 11 8 5 -3 -7 -1
-13 4 -13 6 0 11 4 11 8 0 11 51 9 70 -3 13 -8 13 -7 0 10 -14 17 -13 18 2 12
12 -4 15 -2 11 9 -3 7 0 14 6 14 6 0 11 -6 11 -12 1 -7 9 -3 19 8 16 20 19 20
29 5 10 -14 11 -14 5 3 -5 15 -3 18 10 13 9 -3 19 -1 23 5 4 6 3 8 -3 5 -5 -3
-10 0 -10 7 0 8 8 11 20 8 12 -3 18 -1 14 5 -3 5 0 10 8 10 8 0 12 -4 9 -9 -3
-4 0 -8 5 -8 6 0 11 10 11 23 0 18 2 19 10 7 8 -13 10 -13 10 2 0 9 5 20 12
24 7 5 8 3 3 -6 -5 -8 -3 -11 6 -8 8 3 13 11 11 17 -2 9 3 9 20 0 21 -11 22
-11 10 4 -12 14 -11 16 8 12 19 -4 20 -2 8 12 -10 14 -10 15 0 9 8 -5 19 -1
28 10 9 11 12 12 8 4 -5 -10 -1 -9 14 3 12 11 26 16 33 11 8 -4 10 -3 5 4 -4
6 2 17 14 24 11 7 20 17 20 22 0 5 -10 0 -22 -11 -13 -11 -30 -24 -38 -28 -8
-4 3 8 25 27 32 29 43 34 54 25 12 -10 12 -8 2 12 -7 13 -9 21 -4 18 5 -3 27
10 48 29 22 19 32 34 24 35 -8 0 -4 5 9 11 13 6 21 17 18 24 -3 8 0 11 10 7 8
-3 14 1 15 11 1 9 2 20 3 24 2 14 34 42 48 42 10 0 10 3 -2 9 -8 6 -18 7 -24
4 -5 -3 -6 -1 -2 5 4 6 12 9 19 6 7 -2 22 5 33 17 l19 22 -25 -12 c-19 -9 -17
-5 10 18 37 31 43 47 26 70 -9 12 -8 13 3 6 11 -6 13 -4 8 9 -4 10 -3 15 3 11
5 -3 15 5 21 19 7 14 16 23 22 19 6 -4 7 -1 2 6 -5 9 -10 10 -18 2 -6 -6 -15
-11 -20 -11 -4 0 7 14 25 31 18 18 25 29 16 26 -10 -3 -20 -2 -23 4 -4 5 -3 9
2 8 4 -1 15 -1 23 0 13 1 13 2 0 11 -12 8 -10 10 10 11 17 0 20 3 10 7 -8 4
-16 13 -18 20 -2 10 2 10 19 2 19 -11 20 -10 9 10 -9 17 -9 25 1 34 9 8 10 8
4 -4 -7 -12 -6 -13 6 -2 12 11 12 14 -1 22 -15 9 -13 11 12 14 16 2 21 48 6
58 -9 5 -7 8 7 8 17 0 17 2 5 10 -11 7 -12 10 -2 10 9 0 11 7 7 20 -4 12 -2
20 5 20 6 0 8 -5 4 -12 -4 -7 -3 -8 5 -4 9 6 9 11 0 22 -9 12 -9 13 2 9 10 -4
15 2 16 15 1 13 -2 18 -10 13 -7 -3 2 8 20 27 18 18 30 37 27 41 -2 4 0 10 5
14 7 3 7 15 1 30 -6 15 -6 27 1 30 5 4 7 10 4 15 -3 5 0 12 6 16 8 5 9 3 4 -6
-5 -8 -3 -11 6 -8 17 6 19 30 4 41 -5 5 -1 6 11 3 14 -4 21 -2 21 8 0 9 -4 13
-9 10 -4 -3 -8 0 -8 5 0 6 10 11 23 12 12 0 16 3 10 6 -20 8 5 46 25 39 16 -5
16 -5 0 6 -15 11 -14 14 10 35 22 19 23 23 7 18 -20 -6 -20 -6 -1 9 10 8 23
13 29 9 6 -3 7 -1 3 6 -4 6 -12 9 -17 5 -6 -3 -5 3 2 14 7 12 17 18 21 16 5
-3 11 2 14 10 3 9 9 14 13 11 4 -2 8 2 8 9 0 9 -7 12 -16 9 -10 -4 -9 0 4 10
11 8 23 13 27 11 5 -3 8 0 8 6 0 6 4 8 10 5 7 -4 7 3 0 20 -8 20 -7 27 5 31 8
4 15 12 15 19 0 8 5 17 12 21 7 5 8 3 3 -6 -6 -9 -4 -11 5 -5 10 6 10 10 -3
20 -16 12 -17 38 -2 52 4 4 5 2 0 -6 -6 -10 -4 -12 4 -7 7 5 9 12 3 19 -4 7
-8 19 -7 27 1 8 -3 23 -8 34 -6 13 -6 16 2 12 7 -4 11 1 11 13 0 10 5 21 12
23 7 3 5 7 -6 11 -10 4 -15 3 -11 -3 3 -6 1 -10 -4 -10 -12 0 -14 13 -4 24 11
10 12 37 2 30 -5 -3 -6 -10 -3 -16 4 -6 2 -8 -4 -5 -5 4 -8 17 -4 29 4 16 2
20 -10 15 -12 -4 -14 -1 -10 15 3 14 1 19 -5 15 -7 -5 -9 0 -6 13 3 12 0 20
-6 20 -7 0 -9 5 -6 10 3 6 -1 10 -9 10 -10 0 -13 6 -9 17 5 12 3 14 -7 8 -10
-6 -12 -3 -7 14 4 18 3 20 -9 10 -11 -9 -14 -9 -14 0 0 7 -5 9 -12 5 -10 -6
-10 -5 -1 7 10 12 6 17 -18 28 -17 7 -28 16 -25 19 3 2 12 -1 21 -8 10 -8 15
-9 15 -2 0 7 -15 15 -32 20 -18 4 -38 17 -43 28 -6 12 -16 19 -24 16 -8 -3
-11 0 -7 7 6 10 -5 15 -26 12 -4 0 -10 8 -13 19 -4 11 -13 20 -21 20 -10 0
-12 5 -8 13 6 9 4 9 -8 -1 -14 -11 -17 -10 -23 9 -5 15 -10 18 -15 9 -5 -8 -9
-7 -14 5 -3 9 -10 13 -16 10 -5 -3 -10 -1 -10 4 0 6 -5 11 -11 11 -5 0 -7 -6
-3 -12 5 -8 -2 -6 -16 3 -14 9 -25 21 -25 27 0 6 -4 14 -9 19 -5 5 -6 3 -2 -4
4 -8 1 -13 -9 -13 -9 0 -14 4 -10 10 8 12 -48 8 -58 -5 -5 -5 -5 0 -2 13 5 16
2 22 -10 22 -9 0 -14 -4 -11 -8 3 -5 -2 -9 -11 -9 -9 0 -18 9 -21 20 -4 14 -7
16 -13 5 -7 -11 -9 -11 -9 1 0 11 -3 11 -15 1 -11 -9 -15 -9 -15 -1 0 7 -5 9
-12 4 -17 -10 -39 -13 -33 -4 2 4 -3 8 -11 8 -8 0 -17 -5 -21 -10z m-116 -132
c0 -8 -4 -12 -9 -9 -5 3 -6 10 -3 15 9 13 12 11 12 -6z m583 -1021 c0 -8 -19
-13 -24 -6 -3 5 1 9 9 9 8 0 15 -2 15 -3z m-20 -39 c-7 -9 -15 -13 -17 -11 -7
7 7 26 19 26 6 0 6 -6 -2 -15z m-846 -144 c-9 -9 -34 -9 -34 -1 0 5 9 8 20 7
10 -1 17 -3 14 -6z m-104 -11 c0 -5 -5 -10 -11 -10 -5 0 -7 5 -4 10 3 6 8 10
11 10 2 0 4 -4 4 -10z m17 -12 c-3 -8 -6 -5 -6 6 -1 11 2 17 5 13 3 -3 4 -12
1 -19z m860 -27 c0 -11 -7 -17 -14 -14 -9 4 -9 8 0 19 16 17 16 17 14 -5z
m-1164 -46 c-3 -9 -8 -14 -10 -11 -3 3 -2 9 2 15 9 16 15 13 8 -4z m-360 -200
c-3 -9 -8 -14 -10 -11 -3 3 -2 9 2 15 9 16 15 13 8 -4z m1401 -64 c3 -5 -1
-14 -8 -20 -11 -9 -16 -9 -22 0 -4 8 -3 9 4 5 7 -4 12 -1 12 8 0 18 6 21 14 7z
m-1544 -105 c0 -2 -7 -7 -16 -10 -8 -3 -12 -2 -9 4 6 10 25 14 25 6z m87 -501
c0 -8 -4 -12 -9 -9 -5 3 -6 10 -3 15 9 13 12 11 12 -6z"/>
<path d="M3001 3614 c0 -11 3 -14 6 -6 3 7 2 16 -1 19 -3 4 -6 -2 -5 -13z"/>
<path d="M3150 3558 c0 -4 4 -8 9 -8 6 0 12 4 15 8 3 5 -1 9 -9 9 -8 0 -15 -4
-15 -9z"/>
<path d="M2301 3531 c13 -11 26 -17 28 -15 5 5 -30 33 -43 34 -4 0 2 -9 15
-19z"/>
<path d="M3315 3480 c3 -5 8 -10 11 -10 2 0 4 5 4 10 0 6 -5 10 -11 10 -5 0
-7 -4 -4 -10z"/>
<path d="M3380 3421 c0 -10 19 -25 25 -20 1 2 -3 10 -11 17 -8 7 -14 8 -14 3z"/>
<path d="M1210 3316 c0 -2 7 -7 16 -10 8 -3 12 -2 9 4 -6 10 -25 14 -25 6z"/>
<path d="M2529 3213 c-12 -16 -12 -17 2 -6 9 7 20 9 24 5 5 -4 5 -1 1 6 -9 16
-11 15 -27 -5z"/>
<path d="M1330 3211 c0 -6 4 -13 10 -16 6 -3 7 1 4 9 -7 18 -14 21 -14 7z"/>
<path d="M2520 3186 c0 -2 7 -7 16 -10 8 -3 12 -2 9 4 -6 10 -25 14 -25 6z"/>
<path d="M2882 3126 c7 -8 15 -12 17 -11 5 6 -10 25 -20 25 -5 0 -4 -6 3 -14z"/>
<path d="M3599 3078 c-5 -9 -5 -48 -1 -43 6 6 11 45 5 45 -2 0 -4 -1 -4 -2z"/>
<path d="M2485 3030 c-3 -6 1 -7 9 -4 18 7 21 14 7 14 -6 0 -13 -4 -16 -10z"/>
<path d="M3590 2970 c-9 -6 -10 -10 -3 -10 6 0 15 5 18 10 8 12 4 12 -15 0z"/>
<path d="M3030 2926 c0 -2 8 -10 18 -17 15 -13 16 -12 3 4 -13 16 -21 21 -21
13z"/>
<path d="M3125 2729 c-4 -6 -4 -13 -1 -16 3 -4 6 -1 6 6 0 7 5 9 12 5 7 -4 8
-3 4 4 -9 15 -13 15 -21 1z"/>
<path d="M3140 2639 c-7 -11 -10 -23 -7 -25 2 -2 9 7 15 21 14 30 7 33 -8 4z"/>
<path d="M3055 2480 c-3 -5 -1 -10 4 -10 6 0 11 5 11 10 0 6 -2 10 -4 10 -3 0
-8 -4 -11 -10z"/>
<path d="M2781 2367 c-1 -11 -6 -15 -13 -11 -7 5 -8 3 -3 -5 10 -16 29 2 22
21 -4 8 -6 7 -6 -5z"/>
<path d="M1786 2069 c-11 -11 -17 -21 -14 -24 2 -3 13 4 23 15 24 26 16 33 -9
9z"/>
<path d="M1496 1761 c-4 -5 -2 -12 3 -15 5 -4 12 -2 15 3 4 5 2 12 -3 15 -5 4
-12 2 -15 -3z"/>
<path d="M1670 1296 c0 -2 8 -10 18 -17 15 -13 16 -12 3 4 -13 16 -21 21 -21
13z"/>
</g>
</svg>
